<!DOCTYPE svg PUBLIC "-//W3C//DTD SVG 1.1//EN" "http://www.w3.org/Graphics/SVG/1.1/DTD/svg11.dtd">
<!-- Uploaded to: SVG Repo, www.svgrepo.com, Transformed by: SVG Repo Mixer Tools -->
<svg width="800px" height="800px" viewBox="0 0 1024 1024" class="icon" version="1.1" xmlns="http://www.w3.org/2000/svg" fill="#000000">
<g id="SVGRepo_bgCarrier" stroke-width="0"/>
<g id="SVGRepo_tracerCarrier" stroke-linecap="round" stroke-linejoin="round"/>
<g id="SVGRepo_iconCarrier">
<path d="M90.965 519.126s-0.617-40.016 0-39.401c0.615-38.783 336.272-375.941 413.694-374.293 77.422 1.645 413.694 334.279 413.694 374.293-0.617 0.615 0 39.401 0 39.401h39.399s0.615-40.016 0-39.401c1.231-59.716-345.645-414.742-453.093-413.692-116.074 1.131-453.71 353.362-453.093 413.692-0.617 0 0 39.401 0 39.401h39.399z" fill="#ffffff"/>
<path d="M228.863 479.725v39.401s40.3 315.457 118.198 354.595c78.182 57.45 239.076 58.483 315.193 0 76.506-38.704 118.2-354.595 118.2-354.595v-39.401h39.399v39.401s-40.761 358.568-157.6 393.994c-98.731 59.115-235.563 57.05-334.893 0-81.175-39.084-137.898-393.994-137.898-393.994v-39.401h39.401z" fill="#ffffff"/>
</g>
</svg>